<?xml version="1.0" encoding="utf-8"?>
<!-- Generator: Adobe Illustrator 16.0.4, SVG Export Plug-In . SVG Version: 6.00 Build 0)  -->
<!DOCTYPE svg PUBLIC "-//W3C//DTD SVG 1.1//EN" "http://www.w3.org/Graphics/SVG/1.1/DTD/svg11.dtd">
<svg version="1.1" id="Layer_1" xmlns="http://www.w3.org/2000/svg" xmlns:xlink="http://www.w3.org/1999/xlink" x="0px" y="0px"
	 width="209.546px" height="53.673px" viewBox="0 0 209.546 53.673" enable-background="new 0 0 209.546 53.673"
	 xml:space="preserve">
<g id="ms95qG.tif_1_">
	<g>
		<path fill="#336581" d="M79.894,15.937c0.109,0.131,0.149,0.173,0.186,0.221c1.588,1.973,3.177,3.947,4.763,5.922
			c2.763,3.437,5.522,6.875,8.284,10.312c0.643,0.801,1.28,1.604,1.931,2.397c0.398,0.489,0.91,0.583,1.328,0.263
			c0.308-0.235,0.325-0.577,0.325-0.925c-0.001-6.609,0-13.218-0.003-19.827c0-0.15-0.01-0.305-0.035-0.453
			c-0.062-0.369-0.354-0.614-0.705-0.608c-0.383,0.007-0.659,0.269-0.691,0.661c-0.011,0.151-0.009,0.304-0.009,0.456
			c0,5.898,0,11.798,0,17.696c0,0.139,0,0.279,0,0.418c-0.111-0.013-0.127-0.047-0.15-0.076c-1.844-2.286-3.689-4.574-5.535-6.862
			c-2.609-3.235-5.218-6.47-7.828-9.702c-0.622-0.77-1.236-1.543-1.881-2.291c-0.346-0.401-0.895-0.43-1.2-0.044
			c-0.169,0.215-0.263,0.551-0.265,0.833c-0.014,6.647-0.011,13.294-0.008,19.939c0,0.164,0.018,0.333,0.064,0.486
			c0.102,0.338,0.371,0.473,0.699,0.472c0.335-0.001,0.588-0.16,0.671-0.501c0.045-0.181,0.057-0.374,0.057-0.562
			c0.002-5.885,0.002-11.771,0.002-17.657C79.894,16.354,79.894,16.202,79.894,15.937z M149.247,16.039
			c0.03-0.003,0.061-0.007,0.09-0.01c1.722,2.142,3.441,4.286,5.164,6.429c2.761,3.438,5.522,6.875,8.283,10.312
			c0.541,0.672,1.073,1.348,1.618,2.015c0.403,0.491,0.906,0.591,1.329,0.274c0.312-0.231,0.335-0.572,0.335-0.92
			c0-6.622,0-13.244-0.003-19.865c0-0.163-0.015-0.33-0.047-0.49c-0.065-0.33-0.388-0.564-0.722-0.543
			c-0.354,0.021-0.623,0.266-0.657,0.613c-0.017,0.163-0.017,0.329-0.017,0.494c0,5.912,0,11.823,0,17.735c0,0.131,0,0.26,0,0.479
			c-0.104-0.115-0.136-0.148-0.165-0.187c-1.744-2.158-3.486-4.316-5.229-6.478c-2.705-3.352-5.408-6.706-8.114-10.057
			c-0.619-0.77-1.236-1.542-1.879-2.292c-0.319-0.374-0.702-0.4-1.087-0.155c-0.345,0.22-0.395,0.561-0.395,0.926
			c0,6.646,0,13.294,0.003,19.942c0,0.149,0.02,0.303,0.053,0.449c0.084,0.366,0.355,0.514,0.699,0.517
			c0.35,0.002,0.609-0.165,0.688-0.526c0.038-0.17,0.051-0.351,0.051-0.526c0.002-5.897,0.001-11.796,0.001-17.695
			C149.247,16.331,149.247,16.185,149.247,16.039z M123.561,26.096c0,0.185,0,0.322,0,0.459c0,1.521-0.013,3.045,0.009,4.566
			c0.005,0.348-0.115,0.558-0.385,0.749c-2.667,1.879-5.609,2.426-8.767,1.725c-2.547-0.567-4.514-2.002-5.799-4.289
			c-1.129-2.009-1.481-4.181-1.152-6.453c0.413-2.835,1.818-5.105,4.206-6.656c3.366-2.19,6.847-2.14,10.329-0.199
			c0.196,0.11,0.394,0.23,0.606,0.311c0.355,0.135,0.688,0.026,0.868-0.258c0.188-0.29,0.174-0.641-0.115-0.894
			c-0.28-0.247-0.6-0.464-0.936-0.631c-1.417-0.704-2.916-1.11-4.501-1.24c-2.256-0.187-4.394,0.207-6.365,1.315
			c-4.52,2.545-6.575,7.391-5.446,12.457c0.405,1.812,1.182,3.439,2.456,4.803c1.746,1.866,3.919,2.886,6.438,3.238
			c2.698,0.377,5.235-0.068,7.606-1.417c0.305-0.173,0.595-0.365,0.921-0.566c0.023,0.544,0.024,1.047,0.073,1.547
			c0.036,0.374,0.309,0.573,0.681,0.566c0.441-0.005,0.689-0.309,0.689-0.864c0.003-2.892,0.003-5.784,0-8.676
			c0-0.707-0.19-0.903-0.896-0.907c-1.231-0.003-2.463,0-3.692,0c-1.269,0-2.538-0.013-3.805,0.014
			c-0.226,0.003-0.519,0.105-0.651,0.268c-0.121,0.147-0.129,0.455-0.071,0.661c0.078,0.278,0.35,0.373,0.641,0.373
			c1.344-0.001,2.688,0,4.034,0C121.523,26.096,122.511,26.096,123.561,26.096z M54.246,14.832c0.198,0,0.349,0,0.501,0
			c4.034,0,8.067,0,12.103,0c0.126,0,0.255,0.011,0.379-0.009c0.333-0.053,0.512-0.275,0.54-0.594
			c0.027-0.327-0.143-0.565-0.449-0.671c-0.138-0.045-0.301-0.027-0.453-0.027c-4.364,0-8.727,0-13.091,0
			c-0.82,0-1.062,0.24-1.062,1.06c0,6.42,0,12.837,0,19.256c0,0.836,0.247,1.079,1.093,1.079c4.338,0,8.677,0,13.015,0
			c0.102,0,0.204,0.006,0.305-0.002c0.384-0.03,0.645-0.297,0.648-0.657c0.002-0.375-0.243-0.62-0.65-0.645
			c-0.126-0.008-0.254-0.003-0.38-0.003c-4.022-0.002-8.043-0.002-12.065-0.002c-0.144,0-0.291,0-0.419,0c0-2.946,0-5.83,0-8.729
			c0.185,0,0.336,0,0.489,0c3.475,0,6.951,0,10.427-0.001c0.14,0,0.281,0.005,0.418-0.01c0.412-0.044,0.669-0.473,0.535-0.866
			c-0.152-0.447-0.519-0.458-0.897-0.458c-3.514,0.001-7.028,0-10.542,0c-0.147,0-0.294,0-0.444,0
			C54.246,20.624,54.246,17.747,54.246,14.832z M177.531,14.832c0.179,0,0.328,0,0.478,0c4.034,0,8.069,0,12.102,0
			c0.115,0,0.229,0.007,0.344-0.003c0.491-0.039,0.755-0.547,0.512-0.978c-0.17-0.3-0.449-0.325-0.752-0.325
			c-4.377,0.005-8.753,0.004-13.131,0.004c-0.848,0-1.083,0.234-1.083,1.076c0,6.419,0,12.837,0,19.257
			c0,0.809,0.256,1.062,1.07,1.062c4.352,0,8.702,0,13.053,0c0.09,0,0.178,0.005,0.267-0.002c0.408-0.023,0.677-0.294,0.671-0.675
			c-0.006-0.373-0.253-0.606-0.665-0.627c-0.127-0.008-0.254-0.005-0.38-0.005c-4.01,0-8.02,0-12.027,0c-0.148,0-0.295,0-0.451,0
			c0-2.931,0-5.816,0-8.729c0.176,0,0.324,0,0.474,0c3.476,0,6.953,0,10.429-0.001c0.14,0,0.279,0.005,0.419-0.007
			c0.449-0.041,0.713-0.5,0.538-0.919c-0.165-0.396-0.507-0.408-0.857-0.408c-3.513,0-7.026,0-10.543,0c-0.146,0-0.297,0-0.465,0
			C177.531,20.638,177.531,17.762,177.531,14.832z M137.122,24.263c0-3.334,0-6.669,0-10.005c0-0.113,0.011-0.228-0.005-0.342
			c-0.041-0.359-0.318-0.632-0.668-0.672c-0.337-0.039-0.677,0.184-0.78,0.534c-0.041,0.143-0.057,0.297-0.057,0.446
			c-0.002,6.671-0.002,13.342,0,20.011c0,0.149,0.012,0.307,0.056,0.448c0.156,0.529,0.781,0.746,1.171,0.366
			c0.173-0.167,0.271-0.49,0.272-0.741C137.129,30.959,137.122,27.611,137.122,24.263z"/>
		<path fill-rule="evenodd" clip-rule="evenodd" fill="#336581" d="M79.894,15.937c0,0.265,0,0.417,0,0.568
			c0,5.886,0,11.772-0.002,17.657c0,0.188-0.012,0.382-0.057,0.562c-0.083,0.341-0.336,0.5-0.671,0.501
			c-0.328,0.001-0.597-0.134-0.699-0.472c-0.046-0.153-0.063-0.322-0.064-0.486c-0.003-6.646-0.006-13.292,0.008-19.939
			c0.001-0.282,0.096-0.618,0.265-0.833c0.305-0.386,0.854-0.357,1.2,0.044c0.645,0.748,1.259,1.521,1.881,2.291
			c2.61,3.232,5.218,6.467,7.828,9.702c1.846,2.288,3.691,4.576,5.535,6.862c0.023,0.029,0.039,0.063,0.15,0.076
			c0-0.139,0-0.279,0-0.418c0-5.898,0-11.798,0-17.696c0-0.152-0.002-0.305,0.009-0.456c0.032-0.392,0.309-0.654,0.691-0.661
			c0.352-0.006,0.643,0.239,0.705,0.608c0.025,0.148,0.035,0.303,0.035,0.453c0.003,6.609,0.002,13.217,0.003,19.827
			c0,0.348-0.018,0.689-0.325,0.925c-0.418,0.32-0.93,0.227-1.328-0.263c-0.65-0.793-1.288-1.597-1.931-2.397
			c-2.762-3.437-5.521-6.875-8.284-10.312c-1.586-1.975-3.174-3.949-4.763-5.922C80.042,16.11,80.003,16.067,79.894,15.937z"/>
		<path fill-rule="evenodd" clip-rule="evenodd" fill="#336581" d="M149.247,16.039c0,0.146,0,0.292,0,0.438
			c0,5.898,0.001,11.797-0.001,17.695c0,0.176-0.013,0.356-0.051,0.526c-0.078,0.361-0.338,0.528-0.688,0.526
			c-0.344-0.003-0.615-0.15-0.699-0.517c-0.033-0.146-0.053-0.3-0.053-0.449c-0.003-6.647-0.003-13.295-0.003-19.942
			c0-0.365,0.05-0.706,0.395-0.926c0.385-0.245,0.768-0.218,1.087,0.155c0.643,0.751,1.26,1.523,1.879,2.292
			c2.706,3.351,5.409,6.705,8.114,10.057c1.742,2.161,3.484,4.319,5.229,6.478c0.029,0.038,0.062,0.071,0.165,0.187
			c0-0.219,0-0.348,0-0.479c0-5.912,0-11.823,0-17.735c0-0.165,0-0.331,0.017-0.494c0.034-0.347,0.304-0.592,0.657-0.613
			c0.334-0.021,0.656,0.213,0.722,0.543c0.032,0.16,0.047,0.327,0.047,0.49c0.003,6.622,0.003,13.243,0.003,19.865
			c0,0.348-0.023,0.688-0.335,0.92c-0.423,0.316-0.926,0.217-1.329-0.274c-0.545-0.667-1.077-1.343-1.618-2.015
			c-2.761-3.437-5.522-6.873-8.283-10.312c-1.723-2.143-3.442-4.287-5.164-6.429C149.308,16.031,149.277,16.035,149.247,16.039z"/>
		<path fill-rule="evenodd" clip-rule="evenodd" fill="#336581" d="M123.561,26.096c-1.05,0-2.037,0-3.023,0
			c-1.346,0-2.69-0.001-4.034,0c-0.291,0-0.562-0.095-0.641-0.373c-0.058-0.206-0.05-0.514,0.071-0.661
			c0.133-0.163,0.426-0.265,0.651-0.268c1.267-0.026,2.536-0.014,3.805-0.014c1.229,0,2.461-0.002,3.692,0
			c0.706,0.004,0.896,0.2,0.896,0.907c0.003,2.892,0.003,5.785,0,8.676c0,0.556-0.248,0.859-0.689,0.864
			c-0.372,0.007-0.645-0.192-0.681-0.566c-0.049-0.5-0.05-1.003-0.073-1.547c-0.326,0.201-0.616,0.394-0.921,0.566
			c-2.371,1.349-4.908,1.794-7.606,1.417c-2.52-0.353-4.692-1.372-6.438-3.238c-1.274-1.363-2.051-2.991-2.456-4.803
			c-1.129-5.066,0.927-9.912,5.446-12.457c1.972-1.108,4.109-1.501,6.365-1.315c1.585,0.13,3.084,0.536,4.501,1.24
			c0.336,0.167,0.655,0.384,0.936,0.631c0.289,0.253,0.303,0.604,0.115,0.894c-0.181,0.284-0.513,0.393-0.868,0.258
			c-0.213-0.081-0.41-0.2-0.606-0.311c-3.482-1.941-6.963-1.991-10.329,0.199c-2.388,1.551-3.793,3.821-4.206,6.656
			c-0.329,2.272,0.023,4.444,1.152,6.453c1.285,2.287,3.252,3.722,5.799,4.289c3.157,0.701,6.1,0.154,8.767-1.725
			c0.27-0.191,0.39-0.401,0.385-0.749c-0.021-1.521-0.009-3.045-0.009-4.566C123.561,26.418,123.561,26.281,123.561,26.096z"/>
		<path fill-rule="evenodd" clip-rule="evenodd" fill="#336581" d="M54.246,14.832c0,2.915,0,5.792,0,8.72c0.15,0,0.297,0,0.444,0
			c3.514,0,7.027,0.001,10.542,0c0.378,0,0.745,0.012,0.897,0.458c0.134,0.393-0.123,0.822-0.535,0.866
			c-0.137,0.016-0.278,0.01-0.418,0.01c-3.476,0.001-6.952,0.001-10.427,0.001c-0.152,0-0.304,0-0.489,0c0,2.899,0,5.783,0,8.729
			c0.129,0,0.275,0,0.419,0c4.022,0,8.043,0,12.065,0.002c0.125,0,0.254-0.005,0.38,0.003c0.407,0.024,0.652,0.27,0.65,0.645
			c-0.003,0.36-0.265,0.627-0.648,0.657c-0.101,0.008-0.203,0.002-0.305,0.002c-4.338,0-8.677,0-13.015,0
			c-0.846,0-1.093-0.243-1.093-1.079c0-6.419,0-12.836,0-19.256c0-0.82,0.241-1.06,1.062-1.06c4.364,0,8.728,0,13.091,0
			c0.152,0,0.314-0.018,0.453,0.027c0.306,0.106,0.476,0.345,0.449,0.671c-0.028,0.318-0.208,0.541-0.54,0.594
			c-0.124,0.02-0.253,0.009-0.379,0.009c-4.035,0-8.069,0-12.103,0C54.595,14.832,54.444,14.832,54.246,14.832z"/>
		<path fill-rule="evenodd" clip-rule="evenodd" fill="#336581" d="M177.531,14.832c0,2.93,0,5.806,0,8.72c0.168,0,0.318,0,0.465,0
			c3.517,0,7.03,0,10.543,0c0.351,0,0.692,0.013,0.857,0.408c0.175,0.419-0.089,0.878-0.538,0.919
			c-0.14,0.012-0.279,0.007-0.419,0.007c-3.476,0.001-6.953,0.001-10.429,0.001c-0.149,0-0.298,0-0.474,0c0,2.913,0,5.799,0,8.729
			c0.156,0,0.303,0,0.451,0c4.008,0,8.018,0,12.027,0c0.126,0,0.253-0.003,0.38,0.005c0.412,0.021,0.659,0.254,0.665,0.627
			c0.006,0.381-0.263,0.651-0.671,0.675c-0.089,0.007-0.177,0.002-0.267,0.002c-4.351,0-8.701,0-13.053,0
			c-0.814,0-1.07-0.254-1.07-1.062c0-6.42,0-12.838,0-19.257c0-0.842,0.235-1.076,1.083-1.076c4.378,0,8.754,0,13.131-0.004
			c0.303,0,0.582,0.025,0.752,0.325c0.243,0.431-0.021,0.939-0.512,0.978c-0.115,0.01-0.229,0.003-0.344,0.003
			c-4.032,0-8.067,0-12.102,0C177.859,14.832,177.71,14.832,177.531,14.832z"/>
		<path fill-rule="evenodd" clip-rule="evenodd" fill="#336581" d="M137.122,24.263c0,3.348,0.007,6.696-0.011,10.045
			c-0.002,0.251-0.1,0.574-0.272,0.741c-0.39,0.38-1.015,0.163-1.171-0.366c-0.044-0.142-0.056-0.299-0.056-0.448
			c-0.002-6.669-0.002-13.34,0-20.011c0-0.149,0.016-0.304,0.057-0.446c0.104-0.35,0.443-0.573,0.78-0.534
			c0.35,0.04,0.627,0.313,0.668,0.672c0.016,0.114,0.005,0.229,0.005,0.342C137.122,17.594,137.122,20.929,137.122,24.263z"/>
	</g>
</g>
<g>
	
		<path fill-rule="evenodd" clip-rule="evenodd" fill="none" stroke="#336480" stroke-width="1.4" stroke-linecap="round" stroke-linejoin="round" stroke-miterlimit="10" d="
		M14.802,18.18c0.296-3.075,1.18-6.111,3.236-8.226l0,0c4.249-4.373,11.46-3.23,14.609,1.9c4.199,6.842-0.407,13.852-6.299,18.841
		c-1.121,0.949-2.289,1.825-3.451,2.613c-1.118,0.758-2.231,1.435-3.293,2.017c0,0-0.911,0.482-0.984,0.492"/>
	
		<path fill-rule="evenodd" clip-rule="evenodd" fill="none" stroke="#336480" stroke-width="1.4" stroke-linecap="round" stroke-linejoin="round" stroke-miterlimit="10" d="
		M30.956,26.021c3.145,1.943,6.04,4.347,7.786,7.272c4.049,6.781-2.273,13.993-9.872,12.205l0,0
		c-1.24-0.291-2.617-1.056-3.697-1.743c-2.858-1.817-4.926-4.361-6.486-7.319c-0.903-1.711-1.695-3.487-2.329-5.315
		c-0.329-0.946-0.614-1.908-0.851-2.882c-0.342-1.406-0.582-2.836-0.697-4.287c-0.089-1.11-0.144-2.305-0.126-3.529"/>
	
		<path fill-rule="evenodd" clip-rule="evenodd" fill="none" stroke="#336480" stroke-width="1.4" stroke-linecap="round" stroke-linejoin="round" stroke-miterlimit="10" d="
		M16.541,36.771c-3.733,1.388-8.741,1.814-11.946-0.539c-5.022-3.69-4.291-9.941,0.137-13.153c5.804-4.104,13.287-3.168,19.33-0.577
		c1.613,0.692,3.338,1.503,5.044,2.441"/>
</g>
</svg>
