<?xml version="1.0" encoding="utf-8"?>
<!-- Generator: Adobe Illustrator 16.0.4, SVG Export Plug-In . SVG Version: 6.00 Build 0)  -->
<!DOCTYPE svg PUBLIC "-//W3C//DTD SVG 1.1//EN" "http://www.w3.org/Graphics/SVG/1.1/DTD/svg11.dtd">
<svg version="1.1" id="Layer_1" xmlns="http://www.w3.org/2000/svg" xmlns:xlink="http://www.w3.org/1999/xlink" x="0px" y="0px"
	 width="350.876px" height="56.214px" viewBox="310.624 1.273 350.876 56.214"
	 enable-background="new 310.624 1.273 350.876 56.214" xml:space="preserve">
<g>
	<g id="C9CYQR.tif">
		<g>
			<path fill="#FFFFFF" d="M514.958,26.827c0,1.16,0,2.209,0,3.366c6.834,0,13.612,0,20.633,0c-0.265,2.171-0.357,4.241-0.795,6.24
				c-1.3,5.934-4.63,10.323-10.331,12.671c-3.791,1.563-7.755,1.811-11.789,1.2c-7.508-1.142-12.904-5.131-15.994-12.07
				c-2.377-5.332-2.616-10.892-1.162-16.504c1.329-5.116,4.062-9.334,8.537-12.25c6.17-4.018,12.871-4.408,19.811-2.566
				c3.273,0.867,6.185,2.479,8.771,4.778c0.718-0.915,1.403-1.788,2.177-2.77c-1.036-0.792-1.942-1.616-2.967-2.252
				c-7.061-4.389-14.69-5.263-22.623-3.253c-8.328,2.11-13.86,7.467-16.651,15.539c-2.219,6.418-2.146,12.929,0.186,19.308
				c2.433,6.656,6.976,11.407,13.632,13.979c5.462,2.111,11.092,2.415,16.757,0.975c5.716-1.454,10.022-4.81,12.806-10.044
				c2.7-5.08,3.25-10.565,3.02-16.196c-0.004-0.048-0.076-0.091-0.127-0.149C530.905,26.827,522.958,26.827,514.958,26.827z
				 M475.971,44.884c-2.071-2.31-3.94-4.406-5.821-6.498C459.885,26.97,449.615,15.56,439.365,4.13
				c-0.496-0.551-0.967-0.831-1.719-0.568c0,16.425,0,32.858,0,49.277c1.208,0,2.346,0,3.564,0c0-13.772,0-27.481,0-41.397
				c1.533,1.711,2.932,3.262,4.325,4.817c5.052,5.652,10.104,11.306,15.161,16.954c5.68,6.353,11.372,12.696,17.032,19.065
				c0.536,0.602,1.052,0.761,1.761,0.554c0-16.455,0-32.865,0-49.294c-1.193,0-2.332,0-3.518,0
				C475.971,17.265,475.971,30.923,475.971,44.884z M572.863,52.864c0-13.783,0-27.505,0-41.425c2.115,2.363,4.074,4.558,6.04,6.751
				c5.075,5.674,10.155,11.343,15.23,17.02c5.06,5.648,10.122,11.29,15.151,16.964c0.534,0.602,1.037,0.936,1.83,0.657
				c0-16.442,0-32.875,0-49.307c-1.188,0-2.304,0-3.553,0c0,13.732,0,27.412,0,41.306c-2.588-2.891-5.006-5.6-7.439-8.3
				c-9.717-10.81-19.443-21.613-29.148-32.436c-0.507-0.57-0.989-0.767-1.699-0.52c0,16.432,0,32.842,0,49.295
				C570.442,52.864,571.558,52.864,572.863,52.864z M391.372,52.831c11.747,0,23.412,0,35.052,0c0-1.131,0-2.186,0-3.313
				c-10.517,0-20.971,0-31.451,0c0-6.479,0-12.882,0-19.385c9.254,0,18.449,0,27.674,0c0-1.15,0-2.203,0-3.378
				c-9.267,0-18.484,0-27.68,0c0-6.692,0-13.26,0-19.948c10.532,0,21.005,0,31.457,0c0-1.172,0-2.223,0-3.287
				c-11.709,0-23.355,0-35.052,0C391.372,19.974,391.372,36.383,391.372,52.831z M630.013,6.803c10.567,0,21.04,0,31.487,0
				c0-1.173,0-2.223,0-3.283c-11.711,0-23.354,0-35.035,0c0,16.477,0,32.908,0,49.344c11.713,0,23.358,0,35.035,0
				c0-1.124,0-2.197,0-3.351c-10.517,0-20.971,0-31.451,0c0-6.479,0-12.882,0-19.385c9.26,0,18.451,0,27.673,0
				c0-1.15,0-2.203,0-3.377c-9.266,0-18.485,0-27.709,0C630.013,20.08,630.013,13.534,630.013,6.803z M553.753,52.871
				c0-16.499,0-32.921,0-49.353c-1.186,0-2.3,0-3.468,0c0,16.469,0,32.89,0,49.353C551.456,52.871,552.573,52.871,553.753,52.871z"
				/>
			<path d="M514.958,26.827c8,0,15.947,0,23.887,0c0.049,0.058,0.125,0.102,0.125,0.149c0.232,5.63-0.315,11.116-3.018,16.196
				c-2.783,5.234-7.088,8.59-12.806,10.044c-5.665,1.44-11.297,1.135-16.757-0.975c-6.656-2.571-11.199-7.322-13.632-13.979
				c-2.331-6.379-2.404-12.89-0.186-19.308c2.791-8.069,8.325-13.429,16.648-15.539c7.933-2.01,15.565-1.136,22.623,3.253
				c1.027,0.636,1.936,1.46,2.967,2.252c-0.769,0.981-1.456,1.854-2.174,2.77c-2.585-2.298-5.499-3.911-8.771-4.778
				c-6.939-1.842-13.643-1.452-19.811,2.566c-4.474,2.915-7.208,7.134-8.535,12.25c-1.458,5.612-1.217,11.172,1.158,16.504
				c3.089,6.939,8.486,10.929,15.996,12.07c4.036,0.61,8,0.363,11.791-1.2c5.701-2.35,9.031-6.737,10.329-12.671
				c0.438-1.999,0.53-4.068,0.794-6.24c-7.02,0-13.798,0-20.632,0C514.958,29.036,514.958,27.985,514.958,26.827z"/>
			<path d="M475.971,44.884c0-13.96,0-27.619,0-41.344c1.188,0,2.326,0,3.518,0c0,16.428,0,32.838,0,49.295
				c-0.709,0.203-1.227,0.047-1.762-0.556c-5.657-6.371-11.352-12.713-17.033-19.064c-5.055-5.65-10.105-11.304-15.159-16.955
				c-1.394-1.555-2.79-3.107-4.325-4.816c0,13.917,0,27.622,0,41.399c-1.219,0-2.356,0-3.564,0c0-16.424,0-32.857,0-49.28
				c0.752-0.262,1.223,0.017,1.719,0.569c10.25,11.43,20.519,22.839,30.784,34.255C472.03,40.478,473.901,42.574,475.971,44.884z"/>
			<path d="M572.863,52.864c-1.306,0-2.421,0-3.588,0c0-16.452,0-32.86,0-49.292c0.71-0.245,1.194-0.048,1.703,0.52
				c9.701,10.824,19.428,21.627,29.148,32.438c2.43,2.7,4.848,5.409,7.438,8.296c0-13.89,0-27.573,0-41.304c1.246,0,2.362,0,3.554,0
				c0,16.432,0,32.864,0,49.309c-0.794,0.274-1.297-0.056-1.83-0.659c-5.033-5.674-10.096-11.313-15.15-16.965
				c-5.078-5.675-10.156-11.345-15.235-17.019c-1.962-2.193-3.923-4.388-6.04-6.751C572.863,25.359,572.863,39.081,572.863,52.864z"
				/>
			<path d="M391.372,52.831c0-16.448,0-32.857,0-49.311c11.696,0,23.343,0,35.052,0c0,1.062,0,2.114,0,3.287
				c-10.452,0-20.925,0-31.457,0c0,6.688,0,13.256,0,19.948c9.195,0,18.413,0,27.68,0c0,1.175,0,2.228,0,3.378
				c-9.225,0-18.42,0-27.674,0c0,6.503,0,12.906,0,19.385c10.48,0,20.935,0,31.451,0c0,1.128,0,2.183,0,3.313
				C414.784,52.831,403.119,52.831,391.372,52.831z"/>
			<path d="M630.013,6.803c0,6.731,0,13.276,0,19.948c9.224,0,18.441,0,27.709,0c0,1.175,0,2.225,0,3.377
				c-9.222,0-18.413,0-27.673,0c0,6.503,0,12.906,0,19.385c10.48,0,20.935,0,31.451,0c0,1.153,0,2.227,0,3.351
				c-11.677,0-23.322,0-35.035,0c0-16.439,0-32.867,0-49.344c11.681,0,23.324,0,35.035,0c0,1.06,0,2.11,0,3.283
				C651.053,6.803,640.58,6.803,630.013,6.803z"/>
			<path d="M553.753,52.871c-1.18,0-2.297,0-3.468,0c0-16.461,0-32.884,0-49.353c1.166,0,2.282,0,3.468,0
				C553.753,19.95,553.753,36.372,553.753,52.871z"/>
		</g>
	</g>
	<g>
		<path fill="none" stroke="#336480" stroke-width="3.7531" stroke-miterlimit="10" d="M334.63,41.705
			c-5.241,2.147-13.241,2.883-17.899-0.957"/>
		<path fill="none" stroke="#336480" stroke-width="3.7531" stroke-miterlimit="10" d="M331.402,24.957
			c-0.154-6.154,0.583-14.181,5.402-18.62"/>
		<path fill="none" stroke="#336480" stroke-width="3.7531" stroke-miterlimit="10" d="M316.732,40.748
			c-6.493-5.349-5.048-13.72,1.167-17.716"/>
		<path fill="none" stroke="#336480" stroke-width="3.7531" stroke-miterlimit="10" d="M341.612,38.166
			c-2.438,1.469-4.84,2.662-6.982,3.539"/>
		<path fill="none" stroke="#336480" stroke-width="3.7531" stroke-miterlimit="10" d="M348.757,55.043"/>
		<path fill="none" stroke="#244656" stroke-width="3.7531" stroke-miterlimit="10" d="M334.63,41.705"/>
		<path fill="none" stroke="#336480" stroke-width="3.7531" stroke-miterlimit="10" d="M343.988,23.695
			c6.889,3.417,15.294,8.614,18.981,15.637c4.946,9.436-4.116,18.685-14.213,15.713"/>
		<path fill="none" stroke="#336480" stroke-width="3.7531" stroke-miterlimit="10" d="M348.757,55.043
			c-1.65-0.483-3.457-1.618-4.868-2.624c-3.711-2.667-6.303-6.244-8.182-10.351c-1.088-2.373-2.029-4.824-2.746-7.334
			c-0.373-1.298-0.688-2.619-0.935-3.948"/>
		<path fill="none" stroke="#336480" stroke-width="3.7531" stroke-miterlimit="10" d="M336.802,6.335"/>
		<path fill="none" stroke="#336480" stroke-width="3.7531" stroke-miterlimit="10" d="M332.026,30.789
			c-0.353-1.92-0.57-3.865-0.624-5.832"/>
		<path fill="none" stroke="#336480" stroke-width="3.7531" stroke-miterlimit="10" d="M336.802,6.335
			c6.052-5.573,15.688-3.502,19.542,3.648c5.156,9.532-1.582,18.635-9.889,24.92c-1.58,1.2-3.22,2.295-4.845,3.267"/>
		<path fill="none" stroke="#336480" stroke-width="3.7531" stroke-miterlimit="10" d="M317.896,23.032
			c8.125-5.096,18.144-3.281,26.092,0.664"/>
	</g>
</g>
</svg>
