<?xml version="1.0" encoding="utf-8"?>
<!-- Generator: Adobe Illustrator 16.0.4, SVG Export Plug-In . SVG Version: 6.00 Build 0)  -->
<!DOCTYPE svg PUBLIC "-//W3C//DTD SVG 1.1//EN" "http://www.w3.org/Graphics/SVG/1.1/DTD/svg11.dtd">
<svg version="1.1" id="Layer_1" xmlns="http://www.w3.org/2000/svg" xmlns:xlink="http://www.w3.org/1999/xlink" x="0px" y="0px"
	 width="187.649px" height="55.975px" viewBox="0 0 187.649 55.975" enable-background="new 0 0 187.649 55.975"
	 xml:space="preserve">
<g>
	<path fill="#4A4A4C" stroke="#4A494C" stroke-width="0.2931" stroke-miterlimit="10" d="M83.445,26.026
		c-0.142-1.053-0.206-2.043-0.407-3.008c-0.498-2.333-1.591-4.355-3.476-5.861c-2.667-2.134-5.749-2.665-9.04-1.967
		c-3.605,0.767-6.267,2.823-7.831,6.185c-1.046,2.256-1.267,4.632-0.856,7.081c0.501,2.985,1.972,5.369,4.44,7.128
		c2.205,1.57,4.676,2.192,7.358,1.99c3.457-0.265,6.267-1.677,8.143-4.677c0.463-0.738,0.788-1.572,1.19-2.394c0,0,0,0-0.003-0.001
		c0.022-0.052,0.034-0.107,0.034-0.167c0-0.244-0.196-0.442-0.44-0.442c-0.217,0-0.397,0.158-0.434,0.367
		c-2.259,6.298-8.761,7.441-13.058,5.792c-4.822-1.86-6.699-6.453-6.417-10.026C69.522,26.026,76.407,26.026,83.445,26.026z
		 M63.861,21.095c2.025-3.461,5.117-5.234,9.072-5.273c4.928-0.047,8.359,3.152,9.225,7.722c0.101,0.503,0.155,1.011,0.237,1.57
		c-6.629,0-13.176,0-19.743,0C62.76,23.663,63.148,22.32,63.861,21.095z"/>
	<path fill="#4A4A4C" stroke="#4A494C" stroke-width="0.2931" stroke-miterlimit="10" d="M106.497,36.847
		c0-4.212,0.008-8.421-0.009-12.635c-0.003-0.735-0.07-1.487-0.212-2.213c-0.484-2.52-1.698-4.576-3.958-5.909
		c-1.776-1.041-3.717-1.309-5.737-1.114c-3.085,0.296-5.61,1.585-7.369,4.184c-0.423,0.624-0.739,1.309-1.151,2.053
		c0-1.994,0-3.907,0-5.8c-0.002,0-0.002,0-0.003,0c-0.009-0.246-0.21-0.441-0.458-0.441c-0.247,0-0.448,0.196-0.457,0.441
		c-0.003,0-0.004,0-0.006,0c0,7.259,0,14.476,0,21.714c0,0.002,0,0.004,0,0.005c0,0.003,0,0.003,0,0.007c0,0.003,0,0.005,0,0.009
		l0,0c0.01,0.251,0.215,0.453,0.469,0.453c0.253,0,0.457-0.202,0.466-0.453c0,0,0.001,0,0.003,0c0-0.182,0-0.376,0-0.564
		c0-3.519-0.018-7.037,0.003-10.548c0.009-0.859,0.06-1.725,0.214-2.568c0.457-2.45,1.609-4.505,3.697-5.946
		c2.029-1.396,4.315-1.879,6.747-1.652c2.531,0.239,4.449,1.47,5.7,3.701c0.874,1.557,1.144,3.262,1.144,5.022
		c0.006,3.995,0,7.99,0,11.988c0,0.191,0,0.379,0,0.554c0.004,0,0.004,0,0.007,0c0.012,0.246,0.215,0.444,0.466,0.444
		c0.258,0,0.468-0.21,0.468-0.469c0-0.033-0.005-0.064-0.011-0.097C106.505,36.951,106.497,36.899,106.497,36.847z"/>
	<path fill="#4A4A4C" stroke="#4A494C" stroke-width="0.2931" stroke-miterlimit="10" d="M162.373,36.847
		c0-4.212,0.003-8.421-0.011-12.635c-0.008-0.735-0.069-1.487-0.21-2.215c-0.487-2.518-1.7-4.577-3.962-5.907
		c-1.777-1.041-3.713-1.309-5.743-1.114c-3.079,0.296-5.601,1.585-7.369,4.184c-0.407,0.624-0.727,1.309-1.145,2.053
		c0-1.981,0-3.883,0-5.767c0-0.001,0-0.003,0-0.003c0-0.002,0-0.002,0-0.004c0-0.009,0-0.017,0-0.026c-0.002,0-0.002,0-0.002,0
		c-0.019-0.241-0.215-0.433-0.46-0.433s-0.443,0.191-0.46,0.433c0,0-0.002,0-0.003,0c0,7.266,0,14.49,0,21.729h0.001
		c0.006,0.255,0.212,0.462,0.468,0.462c0.257,0,0.464-0.207,0.467-0.462h0.001c0,0,0,0,0-0.001c0-0.002,0-0.003,0-0.007
		c0-0.001,0-0.003,0-0.006c0-0.197,0-0.376,0-0.549c0.005-3.519-0.012-7.034,0.015-10.545c0.001-0.859,0.049-1.728,0.208-2.571
		c0.463-2.465,1.635-4.532,3.742-5.969c2.017-1.384,4.287-1.854,6.705-1.626c2.526,0.242,4.452,1.47,5.697,3.701
		c0.876,1.557,1.138,3.262,1.141,5.022c0.011,3.995,0.005,7.993,0.005,11.991c0,0.188,0,0.379,0,0.551c0.001,0,0.001,0,0.004,0
		c0.005,0.253,0.212,0.457,0.466,0.457c0.262,0,0.47-0.209,0.47-0.469c0-0.055-0.013-0.107-0.03-0.157
		C162.37,36.922,162.373,36.887,162.373,36.847z"/>
	<path fill="#4A4A4C" stroke="#4A494C" stroke-width="0.2931" stroke-miterlimit="10" d="M136.526,15.423c0-0.005,0-0.01,0-0.015
		c0-0.234-0.189-0.426-0.426-0.426c-0.233,0-0.427,0.191-0.427,0.426c0,0.003,0.003,0.004,0.003,0.006c0,7.269,0,14.501,0,21.738
		h0.004c0.012,0.225,0.196,0.404,0.424,0.404c0.235,0,0.425-0.19,0.425-0.427c0-0.015-0.003-0.03-0.003-0.045
		C136.526,29.828,136.526,22.625,136.526,15.423z"/>
	<path fill="#4A4A4C" stroke="#4A494C" stroke-width="0.2931" stroke-miterlimit="10" d="M131.679,15.369
		c-0.008,0-0.016,0.001-0.023,0.001c-0.219,0-0.407,0-0.602,0c-2.996,0-4.237,0-7.245-0.005c-0.293,0-0.594-0.041-0.875-0.11
		c-2.582-0.661-5.057-0.401-7.378,0.933c-2.755,1.582-4.246,4.784-3.776,7.94c0.191,1.252,0.661,2.374,1.391,3.484
		c-1.64,1.007-2.932,2.195-2.857,4.292c0.076,2.027,1.158,3.329,2.931,4.111c-0.635,0.359-1.303,0.662-1.884,1.081
		c-2.961,2.147-3.319,6.302-1.759,9.117c1.292,2.339,3.395,3.609,5.885,4.292c2.922,0.805,5.905,0.811,8.864,0.266
		c2.561-0.471,4.784-1.611,6.361-3.787c1.667-2.3,1.817-5.849,0.299-8.15c-1.417-2.14-3.557-3.043-6.01-3.126
		c-2.833-0.104-5.673-0.018-8.511-0.057c-0.769-0.012-1.553-0.096-2.298-0.279c-1.204-0.3-2.197-0.958-2.681-2.152
		c-0.843-2.077,0.08-3.813,2.004-4.809c0.107-0.046,0.347,0.028,0.443,0.122c2.306,2.2,5.09,2.833,8.126,2.333
		c3.839-0.635,6.646-3.508,6.902-7.302c0.134-2.064-0.398-3.941-1.745-5.529c-0.525-0.621-1.154-1.153-1.771-1.763
		c1.34,0,2.667,0,3.985,0c1.261,0,0.771,0,2.047,0c0.056,0.022,0.113,0.035,0.177,0.035c0.258,0,0.468-0.209,0.468-0.469
		C132.146,15.58,131.937,15.369,131.679,15.369z M114.615,36.681c0.471-0.076,0.955-0.115,1.431-0.115
		c2.955-0.008,5.906-0.054,8.853,0.03c2.049,0.055,3.862,0.785,5.128,2.498c1.54,2.088,1.453,5.283-0.154,7.433
		c-1.444,1.939-3.462,2.935-5.765,3.367c-1.202,0.229-2.432,0.272-3.651,0.401c-2.156-0.069-4.278-0.292-6.256-1.201
		c-2.77-1.275-4.504-3.326-4.569-6.501C109.563,39.543,111.6,37.153,114.615,36.681z M128.064,23.311
		c-0.139,2.83-1.665,5-4.509,6.191c-3.175,1.328-7.23,0.567-9.457-2.263c-2.779-3.539-1.459-8.836,2.689-10.653
		c2.851-1.245,5.657-1.098,8.26,0.665C127.065,18.613,128.045,20.588,128.064,23.311z"/>
	<path fill="#4A4A4C" stroke="#4A494C" stroke-width="0.2931" stroke-miterlimit="10" d="M186.618,29.863
		c-0.22,0-0.404,0.155-0.453,0.362c0,0-0.002-0.001-0.003-0.001c-2.221,6.137-8.15,7.312-12.33,6.056
		c-5.234-1.564-7.424-6.346-7.158-10.239c6.876,0,13.754,0,20.809,0c-0.136-1.055-0.204-2.045-0.403-3.01
		c-0.5-2.348-1.598-4.384-3.502-5.896c-2.681-2.131-5.765-2.644-9.043-1.94c-3.581,0.771-6.24,2.821-7.793,6.165
		c-1.057,2.27-1.283,4.663-0.86,7.125c0.497,2.913,1.923,5.257,4.301,7.002c2.215,1.632,4.735,2.297,7.478,2.086
		c3.434-0.258,6.244-1.642,8.121-4.623c0.446-0.704,0.771-1.488,1.157-2.276c0.092-0.087,0.15-0.207,0.15-0.343
		C187.088,30.072,186.879,29.863,186.618,29.863z M168.398,20.294c2.088-2.956,5.004-4.459,8.575-4.472
		c4.933-0.028,8.36,3.155,9.226,7.722c0.098,0.503,0.156,1.014,0.238,1.557c-6.606,0-13.159,0-19.747,0
		C166.845,23.334,167.387,21.722,168.398,20.294z"/>
</g>
<circle fill="#4A4A4C" stroke="#4A494C" stroke-width="0.2931" stroke-miterlimit="10" cx="136.16" cy="8.92" r="1.075"/>
<g>
	<g>
		<defs>
			<rect id="SVGID_1_" y="0" width="55.361" height="55.974"/>
		</defs>
		<clipPath id="SVGID_2_">
			<use xlink:href="#SVGID_1_"  overflow="visible"/>
		</clipPath>
		<g clip-path="url(#SVGID_2_)">
			<defs>
				<rect id="SVGID_3_" x="-5.434" y="-5.32" width="67.169" height="67.169"/>
			</defs>
			<clipPath id="SVGID_4_">
				<use xlink:href="#SVGID_3_"  overflow="visible"/>
			</clipPath>
		</g>
		<g clip-path="url(#SVGID_2_)">
			<defs>
				<rect id="SVGID_5_" x="-5.434" y="-5.32" width="67.169" height="67.169"/>
			</defs>
			<clipPath id="SVGID_6_">
				<use xlink:href="#SVGID_5_"  overflow="visible"/>
			</clipPath>
		</g>
		<g clip-path="url(#SVGID_2_)">
			<defs>
				<rect id="SVGID_7_" x="-5.434" y="-5.32" width="67.169" height="67.169"/>
			</defs>
			<clipPath id="SVGID_8_">
				<use xlink:href="#SVGID_7_"  overflow="visible"/>
			</clipPath>
			<path clip-path="url(#SVGID_8_)" fill="#33647F" d="M53.838,38.068c-1.954-3.721-5.332-7.298-10.086-10.694
				c4.372-5.315,7.298-12.291,3.175-19.911c-2.068-3.835-5.864-6.556-10.153-7.273c-4.107-0.69-8.2,0.515-11.227,3.301
				c-3.202,2.95-5.101,7.666-5.672,14.059c-5.162-0.319-9.946,0.769-13.947,3.277l0.343,0.546l-0.349-0.542
				c-3.474,2.234-5.681,5.837-5.904,9.639c-0.219,3.727,1.425,7.23,4.63,9.868l0,0c2.593,2.137,6.117,2.993,9.717,2.993
				c3.367,0,6.799-0.749,9.595-1.895l0,0c0.076-0.03,0.153-0.064,0.23-0.097c0.022,0.05,0.043,0.099,0.066,0.148
				c2.186,4.776,5.044,8.389,8.742,11.048c2.035,1.451,3.809,2.403,5.271,2.829l0-0.001c1.392,0.41,2.799,0.609,4.178,0.609
				c4.003-0.002,7.78-1.671,10.275-4.711C55.792,47.523,56.209,42.591,53.838,38.068 M26.419,4.438
				c2.732-2.516,6.436-3.598,10.144-2.979c3.9,0.654,7.352,3.126,9.233,6.616c3.805,7.032,1.029,13.552-3.108,18.561
				c-2.6-1.767-5.575-3.484-8.923-5.145c-4.286-2.127-8.552-3.402-12.61-3.831C21.694,11.602,23.456,7.167,26.419,4.438
				 M21.061,18.95c5.172,0.578,9.669,2.468,12.133,3.69c3.248,1.611,6.133,3.271,8.653,4.974c-2.019,2.257-4.261,4.167-6.186,5.623
				c-1.573,1.195-3.252,2.327-4.991,3.366l0.265,0.444l-0.267-0.444c-1.926,1.159-3.911,2.198-5.817,3.052
				c-0.914-2.123-1.672-4.221-2.256-6.255c-0.384-1.341-0.708-2.706-0.96-4.056c-0.371-2.033-0.585-4.046-0.639-5.98
				C20.956,21.813,20.979,20.343,21.061,18.95 M23.704,40.808l-0.229-0.56c-5.443,2.228-13.399,2.901-18.009-0.901l-0.312,0.378
				l0.311-0.378c-2.877-2.37-4.356-5.494-4.163-8.8c0.199-3.393,2.186-6.62,5.316-8.633l0,0c4.28-2.682,8.905-3.359,13.163-3.077
				c-0.086,1.442-0.111,2.961-0.07,4.561c0.055,2.002,0.276,4.08,0.66,6.18c0.261,1.392,0.593,2.797,0.988,4.177
				c0.598,2.085,1.376,4.236,2.312,6.41c-0.064,0.026-0.131,0.056-0.195,0.082L23.704,40.808z M51.73,50.448
				c-3.029,3.69-8.168,5.137-13.1,3.684l-0.153,0.519l0.15-0.519c-1.322-0.385-2.966-1.273-4.881-2.64
				c-3.509-2.523-6.231-5.971-8.322-10.539c-0.019-0.041-0.036-0.081-0.055-0.122c1.955-0.876,3.988-1.939,5.959-3.125l0,0
				c1.778-1.062,3.498-2.223,5.107-3.444c2.019-1.526,4.367-3.53,6.478-5.908c4.634,3.292,7.911,6.742,9.786,10.312
				C54.823,42.716,54.46,47.121,51.73,50.448"/>
			<path clip-path="url(#SVGID_8_)" fill="#FFFFFF" d="M44.301,29.378c-0.152-0.117-0.25-0.302-0.25-0.509
				c0-0.356,0.288-0.645,0.645-0.645c0.141,0,0.271,0.045,0.376,0.121l-1.297-0.994c0,0-0.406,0.47-0.868,1.013L44.301,29.378z"/>
			<path clip-path="url(#SVGID_8_)" fill="#FFFFFF" d="M22.151,40.744c0.181-0.062,0.389-0.042,0.562,0.071
				c0.298,0.195,0.381,0.595,0.186,0.893c-0.078,0.118-0.187,0.202-0.309,0.248l1.609-0.568c0,0-0.353-0.576-0.553-1.261
				L22.151,40.744z"/>
			<path clip-path="url(#SVGID_8_)" fill="#FFFFFF" d="M21.364,15.836c-0.023,0.19-0.132,0.368-0.309,0.475
				c-0.306,0.183-0.701,0.083-0.885-0.222c-0.071-0.121-0.104-0.262-0.092-0.391l-0.227,1.846c0,0,0.642,0.017,1.324,0.116
				L21.364,15.836z"/>
		</g>
	</g>
</g>
</svg>
