<?xml version="1.0" encoding="utf-8"?>
<!-- Generator: Adobe Illustrator 16.0.0, SVG Export Plug-In . SVG Version: 6.00 Build 0)  -->
<!DOCTYPE svg PUBLIC "-//W3C//DTD SVG 1.1//EN" "http://www.w3.org/Graphics/SVG/1.1/DTD/svg11.dtd">
<svg version="1.1" id="Layer_1" xmlns="http://www.w3.org/2000/svg" xmlns:xlink="http://www.w3.org/1999/xlink" x="0px" y="0px"
	 width="52.55px" height="53.472px" viewBox="0 0 52.55 53.472" enable-background="new 0 0 52.55 53.472" xml:space="preserve">
<path fill="#336580" d="M21.428,4.153c-2.649,2.751-4.222,6.766-4.752,11.928c-4.08,0.282-7.839,1.541-11.024,3.799l-0.033,0.023
	c-3.466,2.531-5.566,6.476-5.617,10.553c-0.05,4.027,1.811,7.698,5.241,10.337l0.006,0.003c2.547,1.95,5.739,2.748,8.999,2.748
	c2.79,0,5.613-0.601,8.133-1.546c2.096,3.593,4.643,6.372,7.753,8.449c1.983,1.319,3.776,2.187,5.329,2.573v0.001
	c1.201,0.303,2.409,0.45,3.601,0.45c4.289,0,8.342-1.906,10.922-5.305c3.137-4.13,3.417-9.624,0.73-14.333
	c-1.722-3.03-4.363-5.828-7.915-8.45c3.739-6.209,4.087-12.529,0.778-18.18c-2.302-3.921-6.327-6.578-10.764-7.106
	c-4.252-0.506-8.407,0.97-11.383,4.053L21.428,4.153z M31.818,19.111c-3.184-1.435-6.342-2.36-9.396-2.8
	c0.411-3.647,1.462-6.386,3.164-8.152l0,0c1.738-1.797,4.062-2.623,6.546-2.328c2.656,0.316,5.074,1.922,6.467,4.294
	c2.483,4.241,1.505,8.483-0.639,12.113c-1.87-1.07-3.902-2.112-6.136-3.124L31.818,19.111z M27.482,32.708
	c-0.809,0.554-1.625,1.065-2.434,1.546c-0.396-0.965-0.755-1.917-1.059-2.842c-0.374-1.13-0.685-2.239-0.924-3.296
	c-0.38-1.7-0.626-3.341-0.732-4.878h0c-0.026-0.377-0.029-0.723-0.045-1.088c3.007,0.527,5.588,1.518,7.152,2.222l0,0
	c1.797,0.814,3.436,1.651,4.967,2.501c-1.014,1.075-2.04,2.029-2.968,2.824C30.165,30.771,28.833,31.784,27.482,32.708
	L27.482,32.708z M17.433,29.381c0.28,1.242,0.643,2.536,1.075,3.84c0.378,1.154,0.827,2.342,1.332,3.553
	c-3.768,1.263-8.411,1.477-11.079-0.557l0,0c-2.504-1.927-3.007-4.156-2.989-5.689c0.028-2.262,1.238-4.483,3.235-5.949
	c2.373-1.677,4.959-2.457,7.501-2.699c0.021,0.582,0.025,1.146,0.066,1.75l0.001,0.001c0.125,1.828,0.414,3.76,0.856,5.744
	L17.433,29.381z M36.863,47.422c-0.87-0.217-2.157-0.865-3.526-1.777c-2.253-1.505-4.129-3.568-5.724-6.196
	c1.041-0.606,2.091-1.268,3.127-1.974l0.003-0.001c1.509-1.033,2.995-2.164,4.435-3.375c1.566-1.34,2.944-2.708,4.171-4.089
	c2.9,2.141,5.037,4.372,6.349,6.682c1.569,2.749,1.456,5.66-0.311,7.984c-1.508,1.988-4.541,3.748-8.515,2.747L36.863,47.422z"/>
<text transform="matrix(1 0 0 1 56.501 33.731)" display="none" fill="#234656" font-family="'Avenir-Medium'" font-size="44.6425" letter-spacing="-3">engine</text>
<path fill="#234656" d="M39.355,30c0.515,0.376,0.741,0.56,0.741,0.56s1.58-1.86,3.231-4.773c0,0-0.156-0.153-0.515-0.443
	C41.877,26.907,40.718,28.462,39.355,30z"/>
<path fill="#234656" d="M39.77,30.283c0.523,0.363,0.797,0.66,0.797,0.66s1.53-1.901,3.104-4.856c0,0-0.159-0.149-0.527-0.43
	C42.251,27.245,41.093,28.709,39.77,30.283z"/>
<g>
	<path fill="#234656" d="M21.404,40.208c-0.571-1.154-1.087-2.292-1.551-3.406c-0.412,0.173-0.608,0.245-0.608,0.245
		s0.768,2.293,2.418,5.202c0,0,0.224-0.062,0.719-0.255C22.045,41.417,21.717,40.825,21.404,40.208z"/>
</g>
<g>
	<path fill="#234656" d="M20.938,40.373c-0.571-1.162-0.883-2.37-1.348-3.498c-0.417,0.175-0.576,0.169-0.805,0.252
		c0,0,0.752,2.37,2.407,5.309c0,0,0.227-0.062,0.725-0.254C21.579,41.597,21.251,40.999,20.938,40.373z"/>
</g>
<path fill="#234656" d="M16.55,21.876c0,0.256-0.003,0.486-0.001,0.763c0,0,2.392-0.285,5.709,0.123
	c0.007-0.222,0.015-0.404,0.022-0.613C20.481,21.834,18.533,21.693,16.55,21.876z"/>
<path fill="#234656" d="M16.533,22.471c0.009,0.255,0.016,0.485,0.028,0.762c0,0,2.399-0.375,5.759-0.093
	c-0.001-0.223,0-0.405-0.001-0.614C20.495,22.279,18.525,22.211,16.533,22.471z"/>
</svg>
